<svg xmlns="http://www.w3.org/2000/svg" viewBox="0 0 512 512"><defs><linearGradient id="g" x1="0" y1="0" x2="1" y2="1"><stop offset="0" stop-color="#d98272"/><stop offset="1" stop-color="#f0bd74"/></linearGradient></defs><rect width="512" height="512" rx="128" fill="#fbf7f0"/><circle cx="392" cy="108" r="76" fill="#b9d6c6" opacity=".75"/><circle cx="110" cy="390" r="92" fill="#ffe0c9" opacity=".9"/><path d="M256 118c-32 0-58 22-58 49 0 16 11 30 25 39l-103 75c-15 11-22 29-18 47 5 18 21 31 40 31h228c19 0 35-13 40-31 4-18-3-36-18-47l-103-75c14-9 25-23 25-39 0-27-26-49-58-49Zm0 40c11 0 20 5 20 11 0 5-7 10-16 11-11 1-20 10-20 21v18l128 93c3 2 4 5 3 8-1 4-4 6-8 6H149c-4 0-7-2-8-6-1-3 0-6 3-8l128-93v-18c0-11-9-20-20-21-9-1-16-6-16-11 0-6 9-11 20-11Z" fill="url(#g)"/><path d="M197 286c34 21 84 21 118 0" fill="none" stroke="#fff" stroke-width="24" stroke-linecap="round" opacity=".9"/></svg>
